# xmcd
#
# Track frame offsets:
#	150
#	6195
#	25879
#	50696
#	74998
#	90705
#	105843
#	125257
#	145060
#	167489
#	180708
#	199738
#	204423
#	226240
#	244677
#	264365
#	281405
#
# Disc length: 4008 seconds
#
# Revision: 4
# Processed by: cddbd v1.5.1PL0 Copyright (c) Steve Scherf et al.
# Submitted via: audiograbber 1.83.01
#
DISCID=e70fa611
DTITLE=De La Soul - Art Official Intelligence: Mosaic Thump
DYEAR=2000
DGENRE=Hip-Hop
TTITLE0=Spitkicker.com/Say R
TTITLE1=U Can Do (Life)
TTITLE2=My Writes
TTITLE3=Oooh
TTITLE4=Thru Ya City
TTITLE5=I.C. Y'All
TTITLE6=View
TTITLE7=Set the Mood
TTITLE8=All Good?
TTITLE9=Declaration
TTITLE10=Squat!
TTITLE11=Word From the Chief Rocker
TTITLE12=With Me
TTITLE13=Copa (Cabanga)
TTITLE14=Foolin'
TTITLE15=The Art of Getting Jumped
TTITLE16=U Don't Wanna B.D.S
EXTD=
EXTT0=
EXTT1=
EXTT2=
EXTT3=
EXTT4=
EXTT5=
EXTT6=
EXTT7=
EXTT8=
EXTT9=
EXTT10=
EXTT11=
EXTT12=
EXTT13=
EXTT14=
EXTT15=
EXTT16=
PLAYORDER=
